<?xml version="1.0" standalone="no"?>
<!DOCTYPE svg PUBLIC "-//W3C//DTD SVG 20010904//EN"
 "http://www.w3.org/TR/2001/REC-SVG-20010904/DTD/svg10.dtd">
<svg version="1.0" xmlns="http://www.w3.org/2000/svg"
 width="1440.000000pt" height="1440.000000pt" viewBox="0 0 1440.000000 1440.000000"
 preserveAspectRatio="xMidYMid meet">
<metadata>
Created by potrace 1.11, written by Peter Selinger 2001-2013
</metadata>
<g transform="translate(0.000000,1440.000000) scale(0.100000,-0.100000)"
fill="#000000" stroke="none">
<path d="M1790 14149 c-215 -25 -419 -87 -608 -184 -173 -89 -295 -179 -432
-315 -285 -286 -455 -642 -499 -1052 -15 -136 -15 -10660 0 -10796 24 -228 83
-424 185 -621 88 -172 178 -295 314 -431 286 -285 642 -455 1052 -499 136 -15
10660 -15 10796 0 228 24 424 83 621 185 172 88 295 178 431 314 285 286 455
642 499 1052 15 136 15 10660 0 10796 -24 228 -83 424 -185 621 -88 172 -178
295 -314 431 -286 285 -642 455 -1052 499 -119 13 -10694 13 -10808 0z m6284
-233 c-6 -18 -5 -19 10 -7 14 11 16 11 16 -1 0 -8 14 -27 30 -43 17 -16 30
-34 30 -39 0 -6 11 -20 25 -30 14 -11 25 -29 25 -42 0 -13 4 -24 8 -24 11 0
33 -71 26 -82 -4 -5 4 -20 16 -33 17 -18 20 -30 15 -53 -3 -18 -2 -33 4 -37
14 -8 15 -202 1 -210 -6 -4 -10 -23 -9 -43 2 -36 -3 -59 -22 -94 -5 -10 -9
-25 -9 -35 0 -26 -42 -143 -51 -143 -5 0 -9 -11 -9 -24 0 -13 -7 -26 -15 -30
-8 -3 -15 -16 -15 -30 0 -13 -3 -26 -7 -28 -11 -4 -43 -67 -43 -84 0 -8 -4
-14 -9 -14 -5 0 -11 -8 -15 -17 -3 -10 -10 -25 -15 -33 -10 -15 -24 -49 -25
-62 -1 -3 -4 -10 -8 -14 -5 -4 -8 -13 -8 -21 0 -7 -11 -31 -25 -53 -14 -22
-25 -48 -25 -57 0 -10 -14 -45 -30 -78 -16 -33 -30 -70 -30 -82 0 -12 -4 -24
-9 -27 -5 -3 -12 -21 -15 -40 -4 -19 -13 -40 -21 -46 -9 -7 -13 -21 -10 -31 3
-10 1 -26 -4 -36 -5 -10 -13 -39 -16 -65 -3 -26 -10 -50 -15 -53 -5 -3 -12
-28 -16 -56 -4 -27 -11 -52 -15 -55 -5 -3 -9 -24 -9 -48 0 -23 -3 -46 -7 -50
-5 -4 -9 -22 -10 -39 -5 -82 -15 -154 -25 -173 -18 -37 -6 -57 37 -67 48 -11
303 -1 319 12 6 5 34 12 61 16 28 4 55 11 61 16 6 5 25 10 43 12 17 2 37 9 43
15 7 7 22 12 35 12 13 0 23 4 23 9 0 5 20 12 44 15 24 4 51 15 60 25 10 10 37
24 62 31 24 7 44 17 44 21 0 5 7 9 15 9 8 0 15 4 15 9 0 5 8 11 18 15 9 3 24
10 32 15 8 5 22 12 30 15 16 6 51 27 60 36 3 3 21 14 40 24 19 11 61 37 93 58
32 21 61 38 63 38 3 0 10 4 17 10 56 46 77 61 80 58 6 -4 137 105 137 115 0 4
5 7 11 7 7 0 31 17 54 38 68 60 107 92 113 92 4 0 25 19 48 41 41 40 73 47 55
11 -19 -38 -30 -69 -36 -104 -3 -21 -10 -38 -15 -38 -6 0 -10 -11 -10 -25 0
-14 -4 -25 -10 -25 -5 0 -10 -11 -10 -24 0 -13 -7 -29 -15 -36 -8 -7 -15 -17
-15 -23 0 -5 -11 -25 -25 -42 -13 -18 -21 -35 -18 -39 4 -3 2 -6 -4 -6 -6 0
-13 -8 -17 -17 -3 -10 -15 -31 -26 -48 -11 -16 -23 -37 -27 -45 -3 -8 -15 -22
-25 -31 -10 -9 -18 -21 -18 -26 0 -6 -9 -18 -20 -28 -11 -10 -20 -24 -20 -32
0 -8 -18 -33 -40 -56 -22 -22 -46 -54 -53 -69 -6 -15 -16 -28 -20 -28 -13 0
-46 -43 -47 -59 0 -10 -3 -11 -13 -2 -17 13 -28 5 -20 -16 3 -8 -3 -21 -16
-29 -11 -8 -21 -22 -21 -30 0 -8 -5 -14 -11 -14 -11 0 -79 -68 -79 -79 0 -11
-267 -271 -279 -271 -6 0 -11 -9 -11 -20 0 -15 7 -20 24 -20 14 0 27 4 30 9 3
4 26 11 51 14 24 4 53 11 62 16 71 36 74 36 90 16 15 -20 15 -19 10 3 -4 17
-1 22 16 22 12 0 31 7 41 15 11 8 28 15 39 15 10 0 32 9 47 20 16 11 32 20 37
19 12 -3 46 13 61 28 7 7 22 13 33 13 10 0 19 3 19 8 0 9 74 42 94 42 7 0 19
7 26 15 7 8 19 15 26 15 8 0 14 5 14 10 0 6 11 10 25 10 16 0 25 6 25 15 0 9
9 15 25 15 14 0 25 4 25 10 0 5 15 12 34 16 19 3 42 14 52 25 9 10 47 33 83
50 36 18 80 43 98 55 17 13 35 24 38 24 3 0 21 11 39 25 18 14 35 23 38 20 3
-3 13 4 23 15 10 11 26 20 37 20 10 0 18 5 18 11 0 5 15 16 33 24 19 8 39 21
47 29 7 9 23 16 36 16 13 0 24 4 24 10 0 5 10 14 21 21 16 8 23 8 29 -1 5 -9
9 -9 14 -1 4 6 2 11 -3 11 -17 0 -13 17 7 24 20 8 47 23 89 54 17 12 34 22 38
22 3 0 27 16 52 35 25 19 51 35 57 35 6 0 17 9 24 20 7 11 17 20 24 20 6 0 19
6 27 14 28 25 92 57 102 51 5 -4 12 2 16 12 7 21 38 53 51 53 5 0 15 6 21 13
6 8 25 12 43 11 18 -2 25 -1 15 2 -23 7 -17 27 11 34 11 3 37 20 57 37 20 18
39 32 43 32 28 -4 44 5 53 30 6 16 18 32 27 35 18 6 52 28 102 65 l32 24 -7
-24 c-4 -13 -11 -28 -16 -33 -5 -6 -9 -18 -9 -27 0 -9 -7 -22 -15 -29 -8 -7
-15 -19 -15 -27 0 -22 -60 -143 -71 -143 -5 0 -9 -9 -9 -19 0 -11 -4 -22 -10
-26 -5 -3 -7 -12 -4 -20 3 -7 -3 -18 -14 -24 -11 -6 -23 -26 -26 -46 -4 -19
-10 -35 -14 -35 -4 0 -23 -29 -42 -65 -19 -36 -38 -65 -42 -65 -4 0 -8 -6 -8
-14 0 -7 -7 -19 -15 -26 -8 -7 -15 -21 -15 -32 0 -10 -7 -21 -15 -24 -8 -4
-15 -12 -15 -20 0 -8 -4 -14 -10 -14 -5 0 -10 -4 -10 -9 0 -9 -33 -60 -125
-189 -25 -35 -45 -67 -45 -73 0 -5 -4 -9 -8 -9 -5 0 -15 -11 -22 -25 -7 -14
-19 -25 -27 -25 -7 0 -13 -7 -13 -15 0 -8 -11 -25 -25 -37 -13 -11 -22 -25
-19 -30 3 -5 -3 -12 -15 -15 -12 -3 -21 -11 -21 -17 0 -7 -13 -25 -30 -41 -16
-16 -30 -33 -30 -39 0 -15 -52 -66 -67 -66 -7 0 -13 -5 -13 -10 0 -6 -17 -28
-39 -50 -21 -21 -41 -46 -45 -55 -4 -11 -12 -14 -26 -10 -16 5 -20 2 -20 -19
0 -15 -6 -26 -14 -26 -16 0 -31 -17 -40 -47 -9 -27 11 -31 52 -9 67 35 141 66
159 66 11 0 26 7 33 15 7 8 23 15 36 15 13 0 24 5 24 10 0 6 12 10 28 10 15 0
40 7 57 16 16 8 41 13 55 10 14 -3 19 -3 13 0 -21 9 -15 27 7 21 11 -3 23 -1
26 4 3 5 18 9 35 9 16 0 29 4 29 8 0 5 16 9 36 10 20 1 44 8 53 16 9 7 49 17
89 21 39 4 72 12 72 17 0 6 9 8 20 5 10 -3 24 1 30 8 6 7 38 16 73 19 34 4 67
12 73 17 6 4 44 12 85 15 41 4 88 15 104 24 19 11 67 20 128 25 53 4 99 10
102 15 2 4 15 5 29 3 13 -3 27 0 30 6 4 6 31 11 59 10 49 -1 50 -1 22 -11 -16
-6 -34 -17 -38 -24 -4 -8 -14 -14 -21 -14 -7 0 -21 -9 -31 -20 -10 -11 -21
-17 -26 -14 -5 2 -14 -4 -21 -16 -7 -11 -18 -20 -24 -20 -5 0 -23 -14 -39 -30
-16 -16 -34 -30 -40 -30 -6 0 -22 -11 -35 -25 -13 -14 -29 -25 -36 -25 -6 0
-14 -7 -18 -15 -3 -8 -11 -15 -18 -15 -8 0 -43 -29 -78 -65 -35 -36 -70 -65
-77 -65 -7 0 -13 -7 -13 -15 0 -8 -7 -15 -15 -15 -8 0 -15 -4 -15 -10 0 -5
-28 -40 -62 -76 -35 -36 -65 -71 -67 -77 -2 -7 -15 -22 -29 -35 -23 -20 -41
-46 -58 -82 -20 -42 -46 -69 -62 -64 -14 5 -15 4 -2 -5 12 -8 13 -14 4 -29 -6
-9 -15 -32 -19 -50 -3 -18 -11 -32 -16 -32 -5 0 -9 -15 -9 -34 0 -19 -4 -36
-9 -38 -5 -1 -11 -16 -13 -33 -2 -24 2 -32 26 -43 16 -8 31 -10 35 -6 3 5 16
10 28 11 16 2 21 -2 17 -12 -4 -11 1 -15 16 -15 16 0 20 4 16 15 -4 12 3 15
34 15 22 0 40 5 40 10 0 6 24 10 54 10 30 0 58 5 62 11 3 6 15 9 25 6 10 -3
22 -1 25 5 4 6 10 5 15 -3 6 -10 9 -11 9 -1 0 6 11 12 24 12 14 0 27 4 31 9 3
5 20 13 37 17 18 3 39 10 48 15 27 14 55 22 68 20 6 -1 12 2 12 7 0 5 27 17
60 27 33 10 60 22 60 27 0 4 6 8 14 8 7 0 19 7 26 15 7 8 23 15 36 15 13 0 24
4 24 10 0 5 18 13 40 16 22 4 40 10 40 14 0 4 8 10 18 14 18 6 53 27 62 37 3
3 12 8 20 12 8 4 22 11 30 16 8 5 22 12 30 15 8 4 38 20 65 36 28 17 61 36 75
43 14 6 32 20 41 29 9 10 22 18 29 18 7 0 20 7 29 15 34 33 94 75 107 75 8 0
14 4 14 9 0 5 15 19 33 30 17 11 45 32 61 46 16 14 33 25 38 25 13 0 9 -33 -7
-54 -8 -11 -15 -30 -15 -42 0 -12 -7 -27 -15 -34 -8 -7 -15 -18 -15 -24 0 -15
-35 -84 -53 -105 -8 -9 -24 -37 -35 -62 -12 -25 -28 -52 -37 -59 -8 -7 -15
-18 -15 -25 0 -8 -3 -15 -7 -17 -5 -1 -35 -37 -67 -78 -64 -81 -268 -290 -283
-290 -5 0 -22 -14 -39 -31 -17 -17 -36 -28 -46 -26 -11 3 -15 0 -11 -9 3 -8 0
-14 -6 -14 -5 0 -26 -13 -44 -30 -19 -16 -40 -30 -46 -30 -28 0 -6 -41 49 -93
33 -31 64 -57 68 -57 5 0 21 -13 37 -30 16 -16 35 -30 42 -30 7 0 13 -4 13
-10 0 -5 6 -10 13 -10 8 0 24 -11 37 -25 13 -14 29 -25 36 -25 7 0 25 -10 41
-22 33 -27 56 -41 103 -66 19 -10 44 -24 55 -30 11 -7 31 -16 45 -22 14 -5 32
-14 40 -19 17 -10 106 -51 165 -75 22 -9 48 -21 57 -26 10 -6 24 -10 32 -10 8
0 27 -6 43 -14 50 -25 145 -56 216 -71 15 -3 27 -10 27 -15 0 -6 14 -10 30
-10 17 0 30 -4 30 -10 0 -5 17 -10 37 -10 20 0 44 -7 52 -14 9 -8 35 -16 59
-17 23 -2 42 -7 42 -12 0 -5 13 -7 30 -4 16 4 32 2 35 -3 3 -6 19 -10 35 -10
16 0 31 -4 34 -9 3 -5 36 -12 73 -16 38 -4 73 -11 78 -15 6 -5 53 -12 105 -16
52 -4 100 -10 105 -14 20 -15 171 -33 357 -41 54 -3 56 -4 41 -21 -9 -10 -24
-18 -33 -18 -9 0 -25 -9 -35 -19 -9 -11 -41 -30 -71 -42 -30 -13 -54 -26 -54
-31 0 -4 -8 -8 -17 -8 -10 0 -31 -7 -47 -15 -15 -8 -34 -15 -41 -15 -7 0 -15
-5 -17 -12 -2 -6 -30 -13 -61 -16 -31 -2 -57 -8 -57 -13 0 -7 -29 -20 -60 -25
-8 -2 -23 4 -32 13 -18 16 -33 11 -33 -10 0 -35 -533 -41 -610 -7 -11 5 -51
11 -89 15 -68 6 -113 24 -98 40 4 4 -2 4 -13 0 -32 -14 -95 -11 -105 5 -6 9
-21 14 -40 12 -18 -2 -30 1 -30 8 0 8 -10 10 -25 8 -14 -3 -28 -1 -31 3 -3 5
-18 9 -35 9 -16 0 -29 5 -29 10 0 6 -9 10 -20 10 -11 0 -20 5 -20 11 0 6 -7 8
-15 5 -9 -3 -23 -2 -33 3 -20 11 -45 19 -54 17 -3 0 -18 10 -32 23 -23 22 -28
23 -41 10 -15 -15 -10 -59 6 -59 5 0 9 -11 9 -25 0 -14 4 -25 9 -25 5 0 13
-15 16 -32 4 -18 14 -42 21 -53 8 -11 14 -26 14 -33 0 -8 9 -26 19 -41 11 -15
23 -45 27 -66 4 -22 15 -46 26 -53 13 -9 16 -20 12 -38 -4 -15 -2 -24 6 -24 6
0 8 -5 5 -10 -3 -6 3 -22 14 -36 12 -15 21 -36 21 -48 0 -11 7 -30 15 -40 8
-11 15 -30 15 -43 0 -13 5 -23 10 -23 6 0 10 -11 10 -25 0 -14 4 -25 10 -25 5
0 13 -18 16 -40 4 -22 10 -40 15 -40 5 0 9 -13 9 -29 0 -16 7 -34 15 -41 8 -7
15 -23 15 -36 0 -13 5 -24 11 -24 6 0 9 -6 6 -13 -3 -7 4 -30 14 -51 10 -21
21 -54 25 -72 3 -19 10 -34 15 -34 5 0 9 -9 9 -19 0 -11 5 -23 10 -26 6 -3 10
-19 10 -35 0 -16 7 -35 15 -44 8 -8 15 -23 15 -32 0 -16 -1 -16 -15 2 -25 33
-16 -1 9 -37 36 -50 96 -176 96 -201 0 -11 -2 -11 -9 0 -7 11 -9 11 -14 -2 -6
-16 24 -56 41 -56 5 0 15 -12 23 -27 7 -16 30 -48 50 -73 20 -25 39 -52 43
-60 11 -28 31 -54 64 -86 17 -17 32 -35 32 -39 0 -10 162 -175 172 -175 4 0
20 -11 35 -25 60 -54 101 -85 112 -85 6 0 11 -3 11 -8 0 -4 21 -19 46 -32 25
-14 50 -33 55 -42 5 -10 20 -18 33 -18 13 0 29 -7 36 -15 7 -8 19 -15 26 -15
8 0 14 -4 14 -9 0 -5 17 -12 37 -16 21 -4 40 -10 43 -14 7 -9 113 -61 125 -61
6 0 22 -7 37 -14 16 -8 48 -18 73 -22 25 -3 48 -10 51 -15 3 -5 18 -9 35 -9
16 0 29 -4 29 -9 0 -5 25 -13 55 -16 30 -4 55 -11 55 -16 0 -5 8 -10 18 -10
16 -1 16 -2 0 -6 -10 -2 -18 -11 -18 -19 0 -8 -6 -14 -13 -14 -8 0 -22 -10
-33 -21 -10 -12 -34 -28 -51 -36 -18 -7 -33 -18 -33 -23 0 -6 -6 -10 -13 -10
-7 0 -22 -8 -33 -17 -27 -24 -50 -38 -113 -71 -29 -15 -62 -31 -72 -37 -11 -5
-19 -13 -19 -17 0 -5 -7 -8 -16 -8 -15 0 -73 -28 -84 -41 -3 -3 -35 -17 -72
-30 -38 -13 -68 -27 -68 -31 0 -5 -15 -8 -33 -8 -18 0 -37 -4 -42 -9 -6 -5
-32 -12 -58 -15 -26 -3 -58 -11 -70 -18 -16 -9 -79 -13 -222 -13 -171 0 -204
2 -225 17 -14 9 -38 18 -55 20 l-30 3 -4 -70 c-3 -38 -5 -203 -5 -365 -1 -299
12 -483 40 -584 8 -27 14 -68 14 -90 0 -24 8 -51 19 -65 10 -13 16 -32 14 -42
-3 -11 0 -19 6 -19 6 0 11 -13 11 -29 0 -17 5 -33 10 -36 6 -4 8 -11 5 -16 -4
-5 -1 -9 4 -9 6 0 11 -9 11 -19 0 -19 48 -121 61 -131 4 -3 11 -19 14 -35 4
-17 17 -41 29 -55 12 -14 31 -43 42 -64 30 -61 204 -246 231 -246 7 0 16 -6
20 -13 13 -22 76 -65 106 -72 15 -4 27 -11 27 -16 0 -5 18 -12 40 -15 22 -4
40 -10 40 -15 0 -5 9 -9 19 -9 11 0 23 -5 27 -11 3 -6 17 -9 30 -6 36 6 39
-10 4 -18 -16 -4 -30 -10 -30 -15 0 -4 -17 -11 -37 -15 -21 -4 -42 -10 -48
-15 -17 -14 -85 -29 -90 -20 -3 5 -16 -2 -29 -15 -15 -15 -40 -26 -72 -30 -27
-3 -57 -10 -66 -16 -10 -5 -28 -9 -41 -9 -13 0 -26 -3 -30 -6 -15 -16 -355
-28 -372 -14 -8 6 -30 10 -49 9 -19 -2 -38 0 -42 4 -4 4 -22 7 -40 7 -18 0
-36 4 -39 10 -3 5 -14 10 -23 10 -10 0 -39 11 -65 25 -26 14 -52 23 -57 20 -6
-3 -10 -1 -10 4 0 6 -9 11 -20 11 -11 0 -20 5 -20 10 0 6 -7 10 -16 10 -9 0
-12 5 -8 12 5 8 2 9 -11 5 -12 -5 -25 1 -41 18 -13 14 -27 25 -31 25 -15 0
-158 143 -178 177 -26 45 -52 27 -61 -44 -3 -29 -10 -53 -14 -53 -4 0 -11 -37
-15 -83 -4 -45 -12 -88 -17 -94 -15 -18 -12 -341 3 -359 6 -8 9 -21 5 -29 -7
-18 12 -126 25 -139 5 -6 9 -19 9 -31 0 -11 6 -29 14 -40 7 -11 21 -45 31 -75
10 -30 28 -66 41 -81 13 -14 24 -29 24 -34 0 -4 11 -23 25 -41 14 -18 25 -37
25 -43 0 -19 239 -251 258 -251 5 0 17 -9 27 -20 10 -11 24 -20 32 -20 7 0 13
-4 13 -10 0 -5 7 -10 15 -10 8 0 15 -4 15 -10 0 -5 11 -12 25 -16 14 -3 25
-10 25 -15 0 -5 7 -9 15 -9 8 0 15 -5 15 -10 0 -6 6 -10 13 -9 18 2 57 -12 57
-21 0 -5 14 -12 32 -15 l32 -7 -35 -29 c-19 -16 -45 -29 -59 -29 -15 0 -32 -6
-38 -12 -10 -10 -17 -10 -33 0 -12 8 -24 11 -27 7 -4 -3 0 -10 8 -15 11 -7 7
-10 -17 -10 -17 0 -34 -4 -37 -8 -3 -5 -42 -12 -87 -15 -45 -4 -87 -11 -95
-18 -22 -18 -308 7 -356 32 -10 5 -31 9 -47 9 -17 0 -32 4 -36 10 -3 5 -12 7
-19 4 -7 -3 -18 2 -25 10 -6 7 -20 12 -30 9 -9 -2 -23 3 -30 11 -8 9 -20 16
-27 16 -8 0 -14 5 -14 10 0 6 -6 10 -14 10 -7 0 -19 7 -26 15 -7 8 -19 15 -26
15 -16 0 -104 61 -104 72 0 4 -6 8 -14 8 -22 0 -71 70 -56 80 8 5 9 10 2 14
-6 3 -12 0 -15 -6 -5 -15 -5 -16 -42 42 -41 64 -85 152 -85 173 0 9 -5 17 -11
17 -7 0 -8 11 -4 29 3 17 2 32 -4 36 -14 8 -15 267 -1 281 5 5 12 42 16 82 4
39 10 72 15 72 4 0 11 25 14 55 4 30 11 58 16 61 5 3 9 25 9 49 0 24 5 45 11
47 6 2 13 33 16 68 3 36 9 70 13 75 4 6 11 38 15 73 4 34 11 65 16 68 5 3 9
23 9 44 0 21 5 42 11 46 6 3 9 19 5 35 -3 15 -1 31 4 34 6 3 10 24 10 45 0 21
5 42 10 45 6 3 10 23 10 43 0 20 7 50 15 66 8 15 15 45 15 65 1 20 7 54 15 76
8 22 15 54 15 72 0 17 4 34 10 38 5 3 12 32 16 65 4 33 10 60 15 60 4 0 11 26
15 58 3 31 15 70 26 85 11 15 17 34 14 43 -3 8 1 17 9 20 7 3 12 11 9 18 -3 7
2 26 11 42 8 16 15 37 15 46 0 9 5 20 10 23 6 3 10 19 10 36 0 16 4 29 9 29 5
0 13 26 17 58 3 31 11 63 16 69 6 7 13 42 16 78 2 36 9 68 13 71 13 7 11 311
-1 319 -5 3 -10 18 -10 33 -1 35 -41 104 -67 117 -12 6 -27 16 -34 22 -25 19
-95 25 -180 13 -46 -6 -86 -15 -89 -19 -3 -5 -30 -11 -61 -14 -30 -4 -77 -18
-105 -32 -27 -14 -55 -25 -61 -25 -7 0 -13 -4 -13 -10 0 -5 -7 -10 -15 -10 -8
0 -24 -9 -35 -20 -11 -11 -26 -20 -33 -20 -7 0 -28 -16 -47 -35 -19 -19 -37
-35 -42 -35 -13 0 -48 -34 -48 -47 0 -7 -7 -13 -15 -13 -10 0 -15 10 -14 33 2
95 -14 455 -21 472 -8 19 -20 200 -26 395 -1 47 -6 127 -11 178 l-8 94 -33
-58 c-36 -62 -76 -188 -117 -366 -14 -62 -30 -122 -35 -133 -5 -11 -23 -71
-40 -134 -34 -122 -90 -263 -115 -287 -8 -9 -15 -21 -15 -27 0 -44 -237 -297
-278 -297 -7 0 -12 -4 -12 -9 0 -5 -16 -16 -35 -25 -19 -9 -40 -22 -47 -29
-37 -37 -277 -117 -396 -133 -29 -4 -55 -10 -57 -14 -3 -4 -24 -5 -49 -3 -26
3 -46 1 -50 -6 -9 -14 -202 -15 -211 -2 -3 5 -28 9 -56 7 -28 -1 -52 2 -55 6
-3 4 -18 8 -35 8 -83 0 -355 81 -438 130 -25 15 -73 42 -105 61 -86 49 -259
224 -335 340 -67 101 -134 234 -171 339 -13 36 -29 72 -35 80 -6 8 -33 87 -59
175 -26 88 -51 162 -55 165 -4 3 -17 21 -28 40 -12 19 -37 50 -56 68 l-34 33
-116 2 c-110 2 -116 1 -142 -23 -32 -30 -62 -85 -82 -154 -8 -28 -19 -56 -23
-61 -5 -6 -18 -50 -30 -100 -38 -152 -93 -299 -126 -335 -8 -8 -30 -46 -50
-85 -61 -117 -193 -294 -293 -392 -51 -51 -97 -93 -102 -93 -4 0 -20 -11 -35
-25 -63 -58 -341 -165 -430 -165 -12 0 -26 -4 -29 -10 -3 -5 -25 -7 -49 -4
-27 4 -46 2 -50 -5 -9 -14 -402 -16 -411 -2 -3 5 -19 8 -36 6 -17 -2 -38 0
-47 4 -9 5 -48 15 -87 21 -91 17 -213 53 -283 85 -30 14 -61 25 -68 25 -8 0
-14 5 -14 10 0 6 -10 15 -22 20 -70 30 -153 97 -210 168 -42 51 -69 102 -116
214 -34 81 -62 152 -62 158 0 6 -6 21 -14 33 -7 12 -25 58 -39 102 -14 44 -44
136 -66 205 -22 69 -51 172 -66 230 -19 78 -35 119 -63 160 l-37 54 -3 -43
c-2 -23 2 -49 8 -56 8 -10 8 -19 -2 -34 -10 -17 -10 -25 -1 -40 7 -11 15 -74
19 -140 4 -67 11 -121 16 -121 4 0 8 -38 8 -84 0 -47 4 -87 9 -90 5 -3 7 -32
4 -65 -4 -38 -2 -61 6 -65 6 -4 11 -27 11 -52 0 -24 4 -44 9 -44 4 0 8 -26 8
-57 0 -55 -12 -83 -36 -83 -6 0 -11 -6 -11 -14 0 -23 48 -17 53 8 2 11 5 -2 6
-31 0 -28 6 -55 11 -58 6 -3 10 -24 10 -46 0 -21 3 -39 8 -39 4 0 7 -11 7 -25
0 -14 -1 -25 -3 -25 -10 0 -62 32 -69 42 -9 14 -28 27 -91 59 -23 13 -42 25
-42 28 0 7 -46 32 -105 56 -22 9 -48 21 -57 26 -21 11 -238 12 -238 1 0 -4
-17 -16 -37 -27 -44 -23 -52 -30 -77 -70 -16 -24 -19 -45 -17 -115 1 -46 6
-89 10 -95 5 -5 12 -38 16 -73 4 -34 11 -65 16 -68 5 -3 9 -14 9 -25 0 -22 26
-115 40 -141 6 -11 5 -18 -3 -21 -8 -2 -7 -9 6 -21 9 -10 17 -26 17 -36 0 -10
5 -22 10 -25 6 -3 10 -19 10 -34 0 -16 7 -34 15 -41 8 -7 15 -21 15 -31 0 -10
5 -21 10 -24 6 -3 10 -14 10 -23 0 -9 7 -30 15 -46 8 -15 12 -32 9 -37 -3 -5
4 -19 15 -31 12 -12 21 -32 21 -45 0 -13 4 -23 9 -23 5 0 11 -18 15 -39 3 -22
9 -41 14 -43 4 -1 24 -37 45 -78 21 -41 41 -82 46 -90 10 -17 33 -61 82 -160
19 -36 37 -67 40 -70 4 -3 11 -18 14 -33 4 -15 11 -27 16 -27 5 0 9 -6 9 -12
1 -7 9 -31 20 -53 11 -22 19 -45 20 -52 0 -7 9 -28 20 -47 11 -21 15 -38 9
-41 -5 -4 -6 -11 -3 -17 4 -6 10 -5 15 3 6 10 9 8 9 -8 0 -12 5 -25 10 -28 6
-3 10 -13 10 -22 0 -14 20 -66 41 -105 5 -9 12 -35 15 -58 4 -22 10 -40 15
-40 5 0 9 -13 9 -29 0 -17 5 -33 10 -36 6 -4 8 -10 5 -15 -3 -5 -1 -11 5 -15
5 -3 10 -26 10 -50 0 -24 4 -45 10 -47 5 -1 13 -32 16 -68 4 -36 11 -71 17
-78 16 -21 16 -437 0 -453 -7 -7 -13 -31 -13 -54 0 -23 -7 -50 -15 -61 -8 -10
-15 -26 -15 -35 0 -9 -7 -30 -15 -45 -8 -16 -15 -37 -15 -46 0 -10 -4 -18 -9
-18 -5 0 -12 -13 -16 -30 -4 -16 -12 -30 -18 -30 -7 0 -18 -11 -24 -25 -7 -14
-19 -36 -25 -50 -7 -14 -18 -25 -25 -25 -6 0 -13 -4 -15 -9 -7 -19 -92 -111
-103 -111 -6 0 -27 -16 -46 -36 -19 -20 -41 -33 -50 -31 -9 2 -21 -4 -28 -14
-6 -11 -20 -19 -30 -19 -10 0 -24 -7 -31 -15 -7 -8 -21 -15 -30 -15 -17 0 -18
9 -14 101 3 56 9 110 14 120 13 24 13 512 0 525 -5 5 -13 58 -17 117 -3 59
-10 110 -15 113 -4 3 -8 27 -8 54 0 27 -4 52 -10 55 -5 3 -7 19 -4 34 4 16 1
32 -5 35 -6 4 -11 29 -11 57 0 27 -4 49 -9 49 -5 0 -12 27 -16 60 -4 33 -11
63 -16 66 -5 3 -9 18 -9 33 0 15 -7 36 -15 47 -8 10 -15 36 -15 57 0 20 -4 37
-9 37 -5 0 -11 22 -15 50 -4 27 -10 52 -15 54 -5 3 -11 24 -15 46 -3 23 -10
49 -15 58 -11 20 -23 53 -26 67 -4 28 -19 71 -27 76 -5 3 -11 23 -15 45 -3 21
-14 51 -24 65 -10 14 -21 38 -25 55 -4 16 -10 34 -14 39 -4 6 -11 26 -15 45
-4 19 -11 37 -14 40 -11 8 -41 77 -41 94 0 9 -4 16 -9 16 -5 0 -12 12 -16 28
-10 41 -38 102 -47 102 -4 0 -8 11 -8 25 0 29 -34 52 -47 33 -7 -12 -23 -309
-22 -420 0 -25 -4 -49 -10 -52 -5 -3 -12 -33 -16 -66 -4 -33 -11 -63 -16 -66
-5 -3 -9 -14 -9 -25 0 -10 -7 -19 -15 -19 -18 0 -19 -12 -3 -28 8 -8 9 -15 3
-20 -14 -10 -35 -49 -35 -66 0 -8 -7 -16 -15 -20 -8 -3 -15 -12 -15 -21 0 -21
-62 -104 -77 -105 -7 0 -13 -7 -13 -15 0 -8 -7 -15 -15 -15 -13 0 -15 24 -15
158 0 148 -20 343 -40 383 -5 9 -11 41 -15 72 -4 32 -11 57 -16 57 -5 0 -9 11
-9 24 0 14 -5 28 -10 31 -6 4 -8 15 -5 25 3 10 1 21 -5 25 -5 3 -10 16 -10 29
0 12 -11 46 -25 74 -14 29 -25 60 -25 71 0 10 -7 24 -15 31 -8 7 -15 23 -15
37 0 13 -7 26 -15 29 -8 4 -15 15 -15 26 0 11 -10 33 -21 50 l-21 29 21 6 c31
8 25 21 -11 25 -28 3 -33 8 -41 41 -5 20 -13 37 -18 37 -5 0 -9 7 -9 15 0 8
-4 15 -10 15 -5 0 -10 -13 -10 -29 0 -17 -4 -33 -10 -36 -5 -3 -10 -23 -10
-43 0 -20 -5 -55 -11 -77 -6 -22 -15 -60 -19 -85 -19 -95 -35 -165 -41 -175
-4 -5 -10 -31 -13 -57 -4 -26 -11 -50 -16 -53 -4 -3 -11 -24 -15 -47 -4 -23
-11 -49 -15 -58 -40 -78 -60 -124 -60 -135 0 -7 -7 -26 -15 -42 -7 -15 -23
-48 -35 -73 -20 -44 -30 -62 -50 -97 -5 -10 -18 -35 -27 -56 -10 -20 -23 -37
-30 -37 -6 0 -17 -13 -25 -30 -7 -16 -19 -30 -25 -30 -7 0 -13 -6 -13 -12 0
-7 -17 -31 -38 -54 -20 -23 -42 -50 -48 -60 -6 -10 -15 -19 -20 -19 -11 0 -80
-52 -103 -77 -8 -10 -21 -18 -28 -18 -7 0 -21 -4 -31 -10 -17 -9 -69 -31 -107
-45 -33 -12 -65 -14 -65 -4 0 5 4 9 10 9 5 0 27 16 49 35 21 19 41 35 45 35
21 0 205 188 219 223 3 9 15 17 26 17 26 0 35 16 14 24 -14 6 -15 9 -4 15 14
9 36 44 47 74 3 9 10 17 15 17 5 0 9 11 9 25 0 22 9 30 33 26 4 -1 5 10 1 24
-4 15 -2 25 5 25 6 0 11 10 11 23 0 12 7 31 15 41 8 11 15 27 15 35 0 9 7 29
15 45 8 15 15 39 15 52 0 12 4 25 9 29 5 3 12 31 16 63 3 31 10 66 15 77 10
23 18 88 28 220 9 125 3 518 -9 529 -5 6 -9 34 -9 63 0 29 -4 53 -9 53 -4 0
-11 39 -15 87 -3 47 -10 91 -15 97 -4 6 -11 36 -14 65 -4 36 -14 62 -27 75
l-20 20 -1 -34 c-1 -19 0 -51 1 -71 1 -21 -3 -40 -9 -44 -6 -3 -11 -17 -11
-29 0 -13 -7 -37 -15 -52 -8 -16 -15 -38 -15 -50 0 -11 -4 -24 -9 -30 -5 -5
-14 -25 -19 -44 -7 -28 -13 -35 -32 -32 -17 2 -20 -1 -12 -10 13 -17 1 -47
-32 -77 -14 -14 -26 -28 -26 -33 0 -17 -102 -102 -112 -93 -2 3 -15 -6 -28
-20 -13 -14 -31 -25 -41 -25 -9 0 -30 -7 -45 -15 -16 -8 -37 -15 -46 -15 -9 0
-20 -4 -23 -10 -3 -6 -17 -10 -31 -10 -13 0 -24 -4 -24 -9 0 -9 -321 -13 -352
-4 -25 6 -22 23 3 23 12 0 35 6 52 14 18 8 39 17 47 20 8 3 22 10 30 14 8 5
24 13 35 19 59 29 93 51 122 81 34 34 48 39 57 20 3 -8 4 -6 3 3 -1 9 22 42
51 73 28 31 52 60 52 65 0 5 7 11 15 15 8 3 15 12 15 20 0 8 6 19 13 23 16 9
82 123 72 123 -4 0 -2 6 5 14 6 8 17 13 25 10 9 -4 13 8 13 46 0 32 5 57 15
68 13 14 17 48 19 167 3 140 1 154 -22 210 -13 33 -32 72 -41 86 -10 14 -21
38 -25 55 -4 16 -10 34 -15 39 -4 6 -11 30 -15 53 -4 23 -10 42 -14 42 -10 0
-23 40 -20 63 1 10 -3 24 -8 30 -21 26 -40 280 -22 302 14 16 -5 31 -35 27
-31 -5 -75 -26 -75 -36 0 -5 -13 -6 -30 -2 -17 3 -30 1 -30 -4 0 -6 -11 -10
-25 -10 -14 0 -25 -4 -25 -10 0 -14 -377 -14 -385 0 -3 6 -22 10 -41 10 -19 0
-34 4 -34 10 0 5 -13 7 -29 4 -16 -4 -32 -1 -35 5 -4 6 -18 11 -31 11 -13 0
-27 5 -30 11 -4 5 -17 9 -28 8 -22 -2 -38 2 -94 27 -17 8 -43 14 -57 14 -14 0
-26 5 -26 10 0 6 -11 10 -25 10 -14 0 -25 4 -25 9 0 5 -13 12 -30 16 -16 4
-32 11 -35 16 -4 5 -13 9 -21 9 -8 0 -39 11 -67 24 -103 48 -146 66 -156 66
-6 0 -11 4 -11 9 0 5 -12 12 -27 16 -15 3 -30 10 -33 13 -8 11 -38 28 -115 67
l-70 35 42 0 c23 0 43 -5 45 -12 6 -16 475 -15 491 1 6 6 31 11 57 11 25 1 56
7 70 15 14 8 42 14 63 15 20 0 37 5 37 10 0 6 9 10 21 10 11 0 30 5 42 12 12
6 32 13 44 14 23 3 64 20 146 60 27 13 53 24 58 24 15 0 89 34 89 42 0 3 14 9
30 13 17 4 30 11 30 16 0 5 6 9 13 9 8 0 24 11 37 25 13 14 29 25 36 25 6 0
39 20 73 45 34 25 63 45 66 45 9 0 36 23 144 123 22 20 45 37 51 37 5 0 10 6
10 13 0 7 18 31 40 52 22 21 40 45 40 52 0 7 7 13 15 13 8 0 15 5 15 11 0 6
13 23 30 39 16 15 26 30 23 34 -3 3 0 6 8 6 8 0 22 17 32 38 9 20 21 44 26 52
25 40 91 188 91 202 0 9 3 18 8 20 7 3 35 50 61 106 8 17 19 32 23 32 4 0 8 6
8 13 0 13 38 89 49 97 12 9 71 88 71 95 0 9 77 100 133 155 26 26 47 53 47 59
0 6 5 11 11 11 7 0 26 15 44 34 17 19 58 56 91 82 32 26 62 52 65 57 4 5 12 8
19 5 7 -2 30 14 52 35 l40 39 -54 52 c-62 59 -73 67 -153 105 -58 28 -173 55
-211 50 -11 -1 -27 2 -38 6 -11 5 -26 4 -36 -3 -9 -5 -42 -13 -74 -17 -31 -4
-59 -11 -62 -16 -3 -5 -12 -9 -21 -9 -14 0 -66 -20 -105 -41 -10 -5 -24 -6
-33 -3 -8 3 -15 1 -15 -5 0 -6 -4 -11 -9 -11 -5 0 -8 6 -7 13 0 6 -3 13 -9 15
-5 1 -10 -4 -10 -10 0 -29 -57 -38 -226 -38 -99 0 -169 4 -169 9 0 6 -32 13
-70 17 -39 4 -73 11 -76 15 -3 5 -18 9 -35 9 -16 0 -29 4 -29 9 0 5 -25 12
-55 16 -30 3 -55 10 -55 14 0 5 -17 11 -38 14 -20 4 -55 15 -77 26 -22 10 -43
17 -47 14 -5 -2 -8 1 -8 6 0 6 -11 11 -24 11 -13 0 -29 7 -36 15 -7 8 -20 15
-29 15 -9 0 -24 7 -33 14 -15 11 1 14 106 19 68 3 132 10 143 16 18 10 69 24
90 26 6 0 15 4 19 8 4 4 16 7 26 7 10 0 18 4 18 9 0 5 10 12 23 16 12 4 24 9
27 10 3 1 15 6 28 10 12 4 22 11 22 16 0 5 5 9 11 9 13 0 142 61 149 71 3 4
21 15 40 25 19 11 49 28 65 40 17 11 50 31 75 43 52 26 83 43 90 52 8 11 84
49 97 49 6 0 13 5 15 12 3 7 21 12 41 12 27 0 36 4 33 13 -3 7 1 13 9 13 8 0
15 5 15 10 0 6 9 10 19 10 11 0 26 7 35 15 8 8 21 15 28 15 8 0 23 7 34 15 10
8 29 15 40 15 12 0 27 7 34 15 7 8 23 15 36 15 12 0 25 4 28 9 3 5 22 12 41
15 19 4 35 11 35 16 0 6 11 10 25 10 14 0 25 4 25 9 0 5 25 12 55 16 30 3 55
10 55 14 0 5 29 11 65 13 36 3 71 10 78 16 16 12 281 28 422 24 194 -5 330
-14 341 -23 6 -5 50 -12 98 -15 48 -4 89 -11 92 -16 3 -4 24 -8 47 -8 47 0
165 -26 181 -39 6 -5 28 -12 49 -16 20 -4 40 -11 43 -17 3 -5 12 -4 20 3 19
15 18 100 -1 125 -8 10 -15 26 -15 34 0 8 -10 26 -23 40 -12 14 -35 42 -51 63
-16 20 -34 37 -41 37 -8 0 -22 10 -32 23 -26 32 -139 127 -145 122 -2 -3 -15
6 -28 20 -13 14 -28 25 -33 25 -6 0 -25 11 -43 25 -18 14 -37 25 -42 25 -5 0
-15 7 -22 15 -7 8 -19 15 -27 15 -7 0 -19 4 -26 10 -52 43 -81 65 -81 63 -2
-6 -46 10 -46 16 0 7 -52 35 -84 45 -28 9 -3 33 42 39 52 7 139 31 148 40 4 4
24 7 45 7 21 0 41 5 44 10 4 6 15 8 26 5 11 -4 19 -2 19 4 0 6 21 11 49 11 27
0 51 4 53 9 5 15 127 16 140 3 16 -16 28 -15 28 3 0 10 10 15 29 15 17 0 33 5
36 10 8 12 235 14 235 1 0 -4 31 -12 70 -15 38 -4 72 -11 75 -17 4 -5 19 -9
36 -9 23 0 29 4 29 23 0 12 -7 35 -15 51 -9 16 -14 35 -11 42 3 7 -2 15 -10
18 -8 3 -14 9 -13 13 2 15 -13 53 -22 53 -5 0 -9 8 -9 18 0 9 -14 42 -30 72
-16 30 -37 71 -47 90 -10 19 -26 41 -35 48 -10 7 -18 19 -18 25 0 7 -13 27
-30 45 -16 18 -30 36 -30 38 0 3 -7 12 -15 20 -8 8 -11 22 -8 31 4 10 2 14 -5
10 -16 -11 -105 85 -89 96 8 6 7 7 -4 4 -11 -4 -31 9 -55 34 -22 21 -44 39
-49 39 -6 0 -16 9 -23 20 -7 12 -16 18 -21 16 -5 -3 -16 3 -26 14 -10 11 -21
18 -25 15 -4 -2 -18 7 -30 20 -13 14 -29 25 -37 25 -7 0 -13 3 -13 8 0 4 -9
12 -19 17 -91 47 -116 61 -119 68 -2 4 -13 7 -25 7 -12 0 -35 7 -51 15 -15 8
-35 15 -42 15 -8 0 -14 5 -14 10 0 6 -13 10 -28 10 -15 0 -33 5 -38 10 -12 12
-157 50 -191 50 -12 0 -24 4 -27 9 -6 9 -161 20 -309 23 -105 2 -124 24 -55
64 12 8 31 17 41 20 9 3 17 10 17 14 0 4 12 11 28 15 15 3 37 15 48 26 12 11
25 19 30 18 14 -3 46 12 80 38 17 13 39 23 50 23 10 0 41 11 69 25 27 14 55
23 62 21 7 -3 13 -1 13 4 0 6 17 10 38 10 21 0 42 4 48 10 5 5 45 13 87 16 43
4 80 11 83 15 8 13 251 11 259 -2 4 -6 30 -10 59 -8 48 1 64 -2 111 -21 11 -5
38 -11 61 -14 22 -3 56 -13 75 -23 19 -10 42 -16 52 -15 9 2 17 -2 17 -7 0 -6
10 -11 23 -11 12 0 31 -7 41 -15 11 -8 30 -15 43 -15 13 0 23 -4 23 -10 0 -5
5 -10 12 -10 13 0 111 -61 116 -72 2 -5 12 -8 22 -8 10 0 21 -4 24 -9 3 -5 25
-19 48 -31 24 -12 52 -32 63 -44 11 -12 27 -25 35 -29 35 -16 67 -40 168 -126
74 -63 98 -86 105 -104 4 -10 15 -20 24 -24 22 -8 53 -38 53 -52 0 -5 9 -12
19 -16 10 -3 21 -15 24 -26 3 -11 14 -23 25 -25 10 -3 26 -18 35 -33 9 -16 41
-55 71 -87 37 -40 53 -65 50 -76 -3 -12 0 -18 9 -18 8 0 27 -17 43 -37 39 -52
51 -63 58 -56 10 10 7 163 -3 163 -5 0 -12 24 -16 53 -6 48 -14 76 -36 119 -5
10 -9 23 -9 29 0 6 -7 27 -16 47 -8 21 -21 51 -28 67 -7 17 -24 55 -38 85 -15
30 -29 62 -32 70 -3 8 -10 22 -15 30 -5 8 -25 46 -43 83 -61 127 -80 162 -88
167 -5 3 -12 18 -15 33 -4 15 -10 27 -14 27 -4 0 -22 30 -41 68 -19 37 -38 69
-42 70 -5 2 -8 8 -8 13 0 5 -18 38 -40 74 -22 37 -38 70 -35 74 2 5 -4 16 -15
26 -11 10 -20 24 -20 32 0 7 -7 13 -15 13 -8 0 -15 6 -15 14 0 8 -10 27 -23
43 -12 15 -31 45 -42 66 -11 20 -23 37 -26 37 -4 0 -10 12 -13 26 -4 14 -18
38 -31 52 -14 15 -25 32 -25 39 0 7 -4 13 -10 13 -5 0 -10 4 -10 10 0 5 -18
33 -40 62 -22 29 -40 56 -40 61 0 4 -16 29 -35 57 -22 31 -32 55 -28 66 4 12
2 15 -8 12 -11 -4 -83 75 -84 92 0 3 -4 11 -8 18 -6 8 -2 12 12 12 12 0 21 -4
21 -10 0 -5 11 -10 24 -10 13 0 29 -7 36 -15 7 -8 19 -15 26 -15 20 0 94 -33
94 -42 0 -5 8 -8 18 -8 10 0 27 -7 37 -15 11 -8 38 -28 60 -45 22 -16 45 -34
52 -40 7 -5 17 -10 22 -10 5 0 16 -6 23 -12 20 -19 50 -38 71 -44 10 -4 17
-16 17 -30 0 -14 5 -22 13 -19 6 2 21 -2 32 -11 16 -12 17 -16 6 -23 -11 -7
-11 -10 0 -17 7 -4 14 -3 17 4 5 15 72 -35 72 -54 0 -8 6 -14 14 -14 7 0 50
-39 94 -87 45 -49 93 -100 107 -114 14 -14 25 -31 25 -36 0 -5 11 -16 25 -23
21 -11 23 -16 12 -28 -10 -13 -9 -15 6 -9 9 3 17 3 17 -2 0 -5 17 -27 38 -49
59 -64 91 -106 92 -119 0 -7 5 -13 10 -13 6 0 13 -8 17 -17 3 -10 22 -36 42
-59 62 -69 81 -94 81 -103 0 -4 9 -16 20 -26 11 -10 20 -23 20 -30 0 -6 15
-29 33 -51 41 -48 49 -68 34 -84 -9 -10 -7 -11 11 -5 16 5 22 2 22 -9 0 -8 6
-19 13 -23 14 -9 35 -41 43 -65 4 -10 9 -18 13 -18 4 0 15 -17 26 -37 11 -21
28 -47 38 -57 9 -11 27 -40 39 -65 11 -25 28 -54 36 -63 9 -11 12 -27 8 -45
-5 -21 -4 -24 4 -13 9 13 13 12 28 -8 14 -18 20 -20 30 -10 6 6 12 24 12 38 0
14 4 30 9 36 10 9 34 344 26 367 -2 6 -6 88 -9 181 -4 94 -11 186 -16 205 -5
20 -12 89 -16 154 -3 64 -10 120 -15 123 -5 3 -9 27 -9 54 0 27 -5 52 -11 55
-5 4 -10 30 -9 58 2 64 -10 147 -20 147 -4 0 -11 42 -15 93 -4 50 -10 97 -14
102 -12 20 -28 96 -19 93 5 -2 19 -21 31 -43 12 -22 32 -51 45 -65 12 -14 25
-34 28 -45 4 -11 16 -33 28 -50 36 -51 45 -66 70 -127 6 -16 14 -28 18 -28 4
0 11 -18 14 -40 4 -22 10 -40 14 -40 7 0 20 -30 25 -55 1 -5 9 -28 19 -50 10
-22 20 -55 23 -72 3 -18 10 -33 14 -33 5 0 9 -12 9 -27 0 -16 7 -41 15 -57 8
-15 15 -38 15 -51 0 -12 7 -39 15 -58 8 -20 15 -50 15 -66 0 -16 4 -32 9 -35
4 -3 11 -37 15 -76 4 -38 11 -72 17 -75 5 -4 9 -21 9 -40 0 -19 4 -36 9 -40 5
-3 12 -36 16 -73 3 -37 9 -74 13 -82 6 -15 28 -223 38 -360 3 -41 9 -79 13
-85 4 -5 6 -53 5 -105 -1 -52 2 -103 6 -114 7 -19 8 -18 23 10 9 17 16 40 17
50 2 62 13 124 22 124 6 0 8 9 5 20 -3 11 -1 23 4 26 5 3 9 14 9 25 0 11 7 22
15 25 9 4 15 19 15 35 0 16 5 29 10 29 6 0 10 11 10 25 0 14 5 25 10 25 6 0
10 6 10 14 0 7 6 19 14 25 7 6 16 26 20 43 3 17 16 45 29 62 12 17 31 48 42
70 11 21 26 40 33 43 6 3 12 9 12 14 0 5 26 48 58 96 31 48 62 94 67 102 6 9
12 18 15 21 3 3 17 21 32 42 15 20 34 42 41 50 7 7 16 21 20 31 3 9 13 17 22
17 8 0 15 8 15 18 0 16 14 37 73 107 15 18 27 37 27 43 0 6 3 12 8 14 10 4 92
105 92 113 0 3 18 30 40 59 22 29 40 58 40 64 0 7 7 12 15 12 8 0 17 11 21 25
6 24 14 29 42 26 9 -2 11 6 6 23 -4 19 -2 26 9 26 8 0 18 12 22 27 3 15 10 30
14 33 18 13 91 118 91 132 0 9 7 18 15 22 8 3 15 12 15 20 0 7 7 16 15 20 8 3
15 15 15 26 0 17 4 20 23 15 14 -4 18 -3 9 3 -10 7 -5 23 22 75 19 37 44 80
55 96 12 16 21 33 21 39 0 5 6 22 14 38 7 16 20 44 27 62 8 17 18 32 22 32 5
0 7 8 6 18 -2 16 2 30 21 77 13 33 28 177 23 220 l-6 40 22 -19 c15 -13 19
-26 15 -40z m-1958 -10852 c-9 -8 -13 -20 -10 -26 4 -5 1 -21 -7 -34 -10 -20
-10 -29 1 -49 14 -27 36 -35 27 -10 -4 8 -2 17 3 20 6 4 10 -1 10 -11 0 -13 3
-14 15 -4 8 7 13 16 10 20 -2 4 7 13 20 20 14 7 25 17 25 22 0 4 7 8 15 8 17
0 20 -16 5 -25 -13 -8 -13 -55 0 -55 5 0 22 14 37 30 18 21 32 28 45 24 12 -4
25 1 34 13 14 17 15 16 9 -12 -4 -16 -11 -31 -16 -33 -5 -2 -9 -19 -9 -39 0
-41 18 -41 38 0 7 15 17 27 22 27 5 0 28 18 51 40 45 42 58 46 39 10 -6 -12
-9 -27 -7 -35 3 -7 1 -17 -3 -21 -5 -5 -5 -15 0 -24 8 -13 12 -12 28 5 32 34
125 105 136 105 3 0 3 -7 -1 -16 -3 -9 0 -20 7 -24 11 -7 11 -14 2 -34 -6 -14
-8 -26 -3 -26 5 0 11 -10 14 -22 l6 -22 19 22 c26 30 76 29 106 -1 19 -19 28
-21 54 -15 20 6 29 13 26 22 -3 7 9 27 25 44 l31 30 0 -53 c0 -30 5 -57 10
-60 11 -7 40 17 40 33 0 5 7 15 15 22 13 11 15 7 15 -23 0 -19 6 -37 13 -40
14 -5 57 25 57 41 0 5 9 17 21 28 17 16 22 16 29 4 6 -8 10 -34 10 -57 0 -24
2 -43 5 -43 3 0 20 17 39 37 l34 38 8 -30 c14 -57 43 -65 88 -23 25 23 37 23
70 -3 15 -12 37 -19 54 -18 15 2 32 0 39 -4 6 -4 14 -3 18 3 3 6 -1 13 -9 16
-17 7 -22 39 -7 48 5 3 22 -10 38 -29 31 -35 43 -36 43 -3 0 15 5 17 28 12
l27 -7 -27 28 c-15 15 -25 31 -22 36 8 14 44 -9 53 -35 5 -12 16 -28 25 -35
23 -19 46 2 46 42 l0 30 23 -34 c34 -51 52 -45 52 19 0 28 3 52 7 52 7 0 42
-40 68 -77 8 -12 24 -23 35 -25 16 -2 19 2 17 20 -2 12 2 22 7 22 6 0 11 18
11 40 0 22 3 40 8 40 8 0 62 -65 62 -76 0 -10 33 -33 48 -34 8 0 12 21 12 71
0 68 1 70 23 64 12 -4 33 -18 48 -31 14 -13 30 -24 37 -24 7 0 12 -4 12 -10 0
-5 10 -20 21 -31 28 -28 38 -12 29 46 -4 25 -4 45 0 45 4 0 19 -11 34 -25 15
-14 29 -25 32 -25 8 0 41 -37 47 -53 3 -9 11 -17 17 -17 17 0 24 30 12 53 -21
40 -32 77 -23 77 10 0 54 -34 87 -67 25 -25 64 -31 64 -10 0 6 -7 24 -14 40
-20 38 -3 35 62 -8 29 -20 57 -33 62 -30 13 8 13 42 0 50 -5 3 -10 13 -10 22
0 9 -8 25 -17 36 -17 19 -17 19 7 12 14 -4 34 -15 45 -25 11 -10 37 -29 58
-43 42 -28 161 -131 186 -161 9 -11 32 -38 51 -60 66 -76 140 -209 140 -251 0
-13 5 -27 10 -30 6 -3 10 -48 10 -101 0 -56 -4 -94 -10 -94 -5 0 -10 -11 -10
-25 0 -14 -4 -33 -10 -43 -5 -9 -17 -35 -26 -56 l-18 -39 -10 29 c-10 31 -41
64 -61 64 -18 0 -35 -22 -35 -46 0 -13 -4 -25 -10 -29 -5 -3 -7 -12 -4 -20 3
-8 -3 -27 -13 -42 -11 -15 -23 -36 -26 -45 -4 -10 -11 -18 -16 -18 -6 0 -8 6
-5 14 3 8 1 17 -5 21 -6 3 -11 19 -11 34 0 31 -29 71 -51 71 -8 0 -45 -32 -83
-70 -37 -39 -73 -70 -79 -70 -8 0 -11 18 -9 55 4 52 3 55 -20 55 -15 0 -38
-14 -59 -36 -30 -31 -123 -94 -140 -94 -4 0 -4 20 -1 45 4 36 1 46 -13 51 -17
7 -65 -34 -65 -56 0 -5 -4 -10 -9 -10 -5 0 -17 -7 -25 -16 -15 -14 -16 -13
-16 13 0 16 4 33 9 38 5 6 7 22 4 38 -10 50 -45 36 -136 -54 l-82 -80 -3 31
c-2 17 2 38 9 46 9 11 9 21 1 37 -5 12 -13 30 -16 40 -8 24 -33 21 -47 -5 -16
-32 -131 -148 -146 -148 -9 0 -12 23 -10 89 2 94 -6 119 -28 86 -8 -11 -18
-24 -23 -30 -4 -5 -32 -41 -62 -80 l-55 -69 -3 42 c-4 50 -19 54 -68 17 -18
-14 -37 -25 -42 -25 -5 0 -15 -7 -22 -15 -22 -27 -33 -17 -27 25 3 27 1 43
-10 51 -11 10 -23 3 -66 -39 -29 -29 -56 -52 -61 -52 -4 0 -29 23 -56 50 -27
28 -52 50 -57 50 -5 0 -16 -12 -23 -26 -11 -20 -12 -29 -2 -44 25 -41 4 -41
-48 0 -21 17 -43 30 -49 30 -6 0 -11 7 -11 15 0 29 -30 28 -60 0 -29 -28 -30
-28 -50 -10 -11 10 -20 22 -20 26 0 12 -66 79 -78 79 -7 0 -12 -33 -14 -90
l-3 -91 -52 53 c-74 74 -113 120 -113 132 -1 6 -12 -2 -25 -19 -27 -33 -32
-74 -13 -105 9 -14 10 -22 1 -31 -8 -8 -29 7 -78 55 -38 36 -72 66 -77 66 -4
0 -8 7 -8 15 0 21 -24 19 -46 -6 -15 -16 -16 -24 -6 -39 7 -11 12 -34 12 -51
l0 -32 -44 39 c-24 22 -45 47 -45 57 -2 43 -41 5 -41 -42 0 -32 -1 -33 -18
-18 -10 10 -25 17 -32 17 -9 0 -7 -5 6 -15 16 -12 16 -14 3 -15 -19 0 -59 29
-108 78 -28 28 -38 33 -52 24 -14 -9 -25 -5 -54 18 -21 16 -42 27 -48 23 -6
-4 -1 -13 14 -22 37 -24 69 -62 69 -82 0 -9 4 -19 9 -21 4 -1 5 -12 1 -22 -6
-17 -18 -9 -92 62 -47 45 -89 82 -95 82 -17 0 -56 -49 -50 -63 3 -8 0 -31 -7
-52 l-13 -36 -26 53 c-14 29 -29 64 -32 78 -11 41 -29 80 -38 80 -22 0 -49
-24 -63 -58 l-17 -37 -10 33 c-5 17 -13 32 -17 32 -10 0 -24 49 -21 72 1 9 -3
19 -9 23 -13 8 -13 192 0 200 6 3 10 18 10 32 0 23 44 129 60 143 3 3 11 17
18 31 8 15 25 38 38 52 13 14 24 31 24 37 0 5 7 10 15 10 8 0 15 5 15 12 0 14
50 68 63 68 12 0 37 26 37 39 0 6 6 11 14 11 8 0 16 3 18 8 4 11 94 82 103 82
4 0 20 11 37 25 32 27 59 35 34 9z m634 -89 c-7 -8 -17 -15 -23 -15 -5 0 -2 9
8 20 21 23 35 19 15 -5z m293 -949 c4 -10 1 -13 -8 -9 -8 3 -12 9 -9 14 7 12
11 11 17 -5z"/>
<path d="M8180 13660 c0 -5 5 -10 10 -10 6 0 10 5 10 10 0 6 -4 10 -10 10 -5
0 -10 -4 -10 -10z"/>
<path d="M8180 13155 c0 -8 5 -15 10 -15 6 0 10 7 10 15 0 8 -4 15 -10 15 -5
0 -10 -7 -10 -15z"/>
<path d="M4965 13150 c-3 -5 -1 -10 4 -10 6 0 11 5 11 10 0 6 -2 10 -4 10 -3
0 -8 -4 -11 -10z"/>
<path d="M4950 12944 c0 -8 5 -12 10 -9 6 4 8 11 5 16 -9 14 -15 11 -15 -7z"/>
<path d="M5250 12930 c0 -5 5 -10 10 -10 6 0 10 5 10 10 0 6 -4 10 -10 10 -5
0 -10 -4 -10 -10z"/>
<path d="M8050 12830 c0 -5 7 -10 15 -10 8 0 15 5 15 10 0 6 -7 10 -15 10 -8
0 -15 -4 -15 -10z"/>
<path d="M5600 12509 c0 -5 5 -7 10 -4 6 3 10 8 10 11 0 2 -4 4 -10 4 -5 0
-10 -5 -10 -11z"/>
<path d="M7215 12430 c3 -5 8 -10 11 -10 2 0 4 5 4 10 0 6 -5 10 -11 10 -5 0
-7 -4 -4 -10z"/>
<path d="M5320 12370 c0 -5 7 -10 15 -10 8 0 15 5 15 10 0 6 -7 10 -15 10 -8
0 -15 -4 -15 -10z"/>
<path d="M10760 12290 c0 -5 5 -10 10 -10 6 0 10 5 10 10 0 6 -4 10 -10 10 -5
0 -10 -4 -10 -10z"/>
<path d="M10758 12253 c7 -3 16 -2 19 1 4 3 -2 6 -13 5 -11 0 -14 -3 -6 -6z"/>
<path d="M10415 12020 c-3 -5 -1 -10 4 -10 6 0 11 5 11 10 0 6 -2 10 -4 10 -3
0 -8 -4 -11 -10z"/>
<path d="M5986 11941 c-4 -7 -5 -15 -2 -18 9 -9 19 4 14 18 -4 11 -6 11 -12 0z"/>
<path d="M10570 11860 c0 -5 5 -10 10 -10 6 0 10 5 10 10 0 6 -4 10 -10 10 -5
0 -10 -4 -10 -10z"/>
<path d="M6140 11760 c0 -5 5 -10 10 -10 6 0 10 5 10 10 0 6 -4 10 -10 10 -5
0 -10 -4 -10 -10z"/>
<path d="M6110 11750 c0 -5 5 -10 10 -10 6 0 10 5 10 10 0 6 -4 10 -10 10 -5
0 -10 -4 -10 -10z"/>
<path d="M8000 11570 c0 -5 5 -10 10 -10 6 0 10 5 10 10 0 6 -4 10 -10 10 -5
0 -10 -4 -10 -10z"/>
<path d="M10320 11480 c0 -5 5 -10 11 -10 5 0 7 5 4 10 -3 6 -8 10 -11 10 -2
0 -4 -4 -4 -10z"/>
<path d="M11058 11138 c9 -9 15 -9 24 0 9 9 7 12 -12 12 -19 0 -21 -3 -12 -12z"/>
<path d="M10700 10710 c0 -5 5 -10 10 -10 6 0 10 5 10 10 0 6 -4 10 -10 10 -5
0 -10 -4 -10 -10z"/>
<path d="M10730 10710 c0 -5 4 -10 9 -10 6 0 13 5 16 10 3 6 -1 10 -9 10 -9 0
-16 -4 -16 -10z"/>
<path d="M11970 10710 c0 -5 5 -10 10 -10 6 0 10 5 10 10 0 6 -4 10 -10 10 -5
0 -10 -4 -10 -10z"/>
<path d="M10570 10455 c0 -8 5 -15 10 -15 6 0 10 7 10 15 0 8 -4 15 -10 15 -5
0 -10 -7 -10 -15z"/>
<path d="M5230 9878 c-30 -4 -80 -10 -110 -13 -30 -4 -62 -13 -71 -21 -8 -8
-25 -14 -37 -14 -12 0 -22 -4 -22 -9 0 -5 -13 -12 -29 -16 -15 -3 -34 -17 -41
-30 -7 -14 -19 -25 -25 -25 -6 0 -18 -11 -25 -25 -7 -14 -19 -25 -27 -25 -7 0
-13 -7 -13 -15 0 -8 -7 -15 -15 -15 -8 0 -15 -5 -15 -11 0 -6 -12 -26 -27 -44
-58 -69 -141 -199 -159 -247 -3 -10 -10 -18 -14 -18 -5 0 -12 -14 -15 -32 -4
-17 -16 -45 -26 -62 -10 -17 -21 -38 -25 -46 -3 -8 -10 -23 -15 -32 -5 -10 -9
-23 -9 -30 -1 -7 -9 -31 -20 -53 -11 -22 -19 -52 -20 -67 0 -16 -4 -28 -10
-28 -5 0 -10 -13 -10 -29 0 -17 -4 -32 -9 -36 -6 -3 -13 -27 -17 -53 -3 -26
-10 -52 -14 -57 -5 -6 -12 -38 -16 -73 -3 -34 -11 -65 -15 -68 -5 -3 -9 -18
-9 -34 0 -16 -5 -32 -11 -35 -6 -4 -9 -22 -7 -40 1 -19 -1 -37 -5 -41 -4 -4
-7 -30 -7 -59 0 -28 -4 -55 -9 -60 -11 -12 -21 -99 -24 -202 -1 -39 -5 -75 -9
-79 -5 -4 -8 -54 -8 -110 0 -61 -4 -105 -10 -109 -11 -7 -8 -280 3 -291 6 -7
124 14 152 27 32 14 510 106 620 119 55 7 111 17 124 23 35 17 595 17 613 0 6
-7 28 -13 47 -13 124 0 764 -100 826 -130 21 -10 165 -39 335 -67 133 -22 564
-25 710 -5 184 26 395 62 415 71 27 13 489 96 650 116 72 9 141 22 154 28 34
17 579 17 612 0 13 -6 80 -19 149 -28 215 -28 507 -89 553 -115 24 -14 157
-41 168 -34 11 7 12 44 0 44 -4 0 -11 75 -15 168 -4 92 -12 171 -17 176 -5 6
-9 44 -9 86 0 42 -3 79 -6 83 -3 3 -7 34 -9 69 -4 103 -17 213 -26 218 -4 3
-12 64 -18 135 -13 159 -21 215 -31 215 -4 0 -10 28 -14 61 -3 34 -10 67 -15
73 -4 6 -11 36 -15 66 -7 52 -13 69 -53 158 -10 20 -18 39 -18 42 -9 37 -19
60 -25 60 -4 0 -12 12 -18 28 -5 15 -28 50 -51 79 -22 29 -41 56 -41 61 0 4
-13 21 -30 37 -16 16 -30 35 -30 42 0 7 -7 13 -15 13 -8 0 -15 6 -15 14 0 8
-7 16 -15 20 -8 3 -15 11 -15 18 -1 7 -23 36 -50 63 -28 28 -50 54 -50 59 0
34 -149 126 -205 126 -25 0 -31 2 -91 33 -18 10 -34 13 -40 7 -5 -5 -83 -10
-173 -11 -110 -2 -171 -7 -188 -16 -14 -7 -47 -13 -74 -13 -26 0 -51 -5 -55
-11 -3 -6 -22 -9 -42 -7 -20 3 -61 -2 -91 -10 -31 -8 -73 -16 -93 -19 -21 -3
-38 -8 -38 -13 0 -4 -22 -5 -49 -2 -30 2 -51 0 -55 -7 -4 -6 -18 -11 -32 -11
-13 0 -24 -3 -24 -7 0 -5 -25 -9 -56 -10 -31 -2 -70 -9 -87 -17 -18 -8 -81
-17 -142 -20 -60 -3 -114 -11 -119 -16 -6 -6 -20 -10 -33 -10 -13 0 -23 -4
-23 -8 0 -4 -8 -8 -17 -9 -46 -4 -109 -17 -119 -24 -6 -5 -33 -12 -60 -15 -43
-5 -77 -16 -136 -45 -10 -5 -29 -9 -43 -9 -14 0 -25 -4 -25 -10 0 -5 -9 -10
-20 -10 -11 0 -37 -7 -57 -15 -21 -9 -64 -18 -97 -20 -41 -4 -63 -10 -69 -21
-7 -13 -11 -14 -17 -3 -7 11 -14 10 -37 -1 -15 -7 -30 -14 -33 -15 -3 -1 -17
-5 -32 -9 -15 -4 -34 -19 -43 -32 -15 -23 -45 -33 -45 -15 0 5 -15 11 -32 15
-42 8 -88 29 -88 38 0 5 -8 8 -17 8 -10 0 -31 7 -47 15 -16 8 -46 18 -67 21
-22 4 -39 10 -39 13 0 10 -69 33 -79 26 -5 -3 -12 -1 -16 5 -3 5 -17 10 -30
10 -13 0 -26 4 -29 9 -3 5 -31 12 -61 16 -30 3 -55 10 -55 14 0 5 -28 11 -62
15 -34 3 -64 10 -67 15 -4 5 -43 12 -89 16 -45 4 -85 12 -88 16 -3 5 -16 9
-29 9 -13 0 -26 4 -29 9 -3 4 -36 11 -73 15 -37 4 -87 16 -111 27 -27 13 -52
19 -67 15 -14 -4 -25 -2 -25 4 0 5 -13 10 -29 10 -17 0 -33 5 -37 11 -3 6 -17
9 -30 6 -14 -2 -27 0 -30 4 -3 5 -20 9 -39 9 -19 0 -37 5 -40 10 -3 6 -19 10
-35 10 -16 0 -32 5 -35 11 -4 6 -19 7 -36 4 -18 -4 -29 -3 -29 4 0 7 -22 11
-54 11 -30 0 -56 4 -58 10 -1 5 -39 12 -83 16 -44 3 -89 9 -100 14 -29 12
-121 16 -185 8z m2135 -448 c-28 -12 -37 -12 -30 0 3 6 16 10 28 9 21 0 21 -1
2 -9z"/>
<path d="M8640 9790 c0 -5 5 -10 10 -10 6 0 10 5 10 10 0 6 -4 10 -10 10 -5 0
-10 -4 -10 -10z"/>
<path d="M1760 9610 c0 -5 5 -10 10 -10 6 0 10 5 10 10 0 6 -4 10 -10 10 -5 0
-10 -4 -10 -10z"/>
<path d="M4500 9310 c0 -5 5 -10 10 -10 6 0 10 5 10 10 0 6 -4 10 -10 10 -5 0
-10 -4 -10 -10z"/>
<path d="M2780 8940 c0 -5 5 -10 10 -10 6 0 10 5 10 10 0 6 -4 10 -10 10 -5 0
-10 -4 -10 -10z"/>
<path d="M2206 8063 c-11 -11 -6 -23 9 -23 8 0 15 4 15 9 0 13 -16 22 -24 14z"/>
<path d="M5450 7583 c-85 -8 -156 -19 -158 -23 -1 -4 -14 -5 -28 -2 -14 2 -35
0 -47 -6 -19 -9 -111 -28 -186 -38 -14 -1 -36 -8 -50 -15 -14 -6 -35 -15 -46
-19 -82 -31 -118 -53 -176 -108 -43 -40 -75 -81 -90 -115 -23 -49 -24 -62 -24
-258 0 -147 4 -211 13 -221 6 -8 12 -37 13 -64 1 -27 5 -53 9 -59 4 -5 15 -44
24 -85 74 -327 145 -481 289 -621 64 -62 199 -147 245 -155 15 -3 34 -7 42
-11 96 -39 341 -69 506 -60 115 6 251 29 294 49 14 7 32 13 41 14 9 0 56 20
103 43 48 22 91 41 96 41 4 0 10 4 12 8 2 5 32 29 68 53 57 38 112 88 197 179
12 14 23 31 23 38 0 6 4 12 9 12 5 0 16 12 23 28 8 15 35 63 61 107 26 44 63
121 83 170 20 50 42 97 49 105 23 26 94 277 104 364 13 108 -2 215 -37 280
-59 108 -198 205 -387 271 -44 16 -84 31 -90 35 -5 4 -23 8 -40 8 -16 0 -52 8
-78 17 -112 38 -189 46 -452 50 -182 2 -306 -1 -415 -12z"/>
<path d="M8700 7595 c-8 -2 -55 -9 -105 -15 -49 -7 -95 -17 -101 -22 -7 -5
-16 -8 -20 -7 -5 1 -16 0 -24 -3 -8 -3 -69 -20 -135 -38 -133 -36 -235 -80
-309 -133 -75 -55 -153 -135 -161 -165 -3 -15 -14 -43 -23 -62 -22 -45 -25
-258 -4 -282 7 -9 12 -20 11 -24 -1 -5 0 -16 3 -24 3 -8 16 -51 29 -95 46
-158 164 -415 243 -529 23 -32 48 -68 56 -80 18 -26 138 -139 195 -183 38 -29
162 -105 167 -103 4 2 103 -36 143 -55 111 -50 448 -66 659 -31 60 10 121 23
135 28 14 6 35 13 45 15 11 2 25 8 31 13 6 5 31 17 55 25 59 21 159 94 217
160 68 76 144 221 177 335 15 52 32 103 37 113 14 25 64 255 80 362 7 50 13
155 13 235 1 163 -13 229 -61 292 -55 71 -168 142 -278 173 -33 10 -65 22 -71
27 -7 5 -16 8 -20 6 -19 -4 -140 15 -151 24 -7 6 -22 8 -34 5 -12 -3 -29 -2
-38 3 -30 17 -355 40 -551 39 -107 -1 -202 -3 -210 -4z"/>
<path d="M1377 7456 c-3 -8 -2 -18 3 -21 13 -8 24 15 12 27 -6 6 -11 4 -15 -6z"/>
<path d="M12486 7292 c-3 -6 -1 -14 5 -17 15 -10 25 3 12 16 -7 7 -13 7 -17 1z"/>
<path d="M610 7270 c0 -5 5 -10 10 -10 6 0 10 5 10 10 0 6 -4 10 -10 10 -5 0
-10 -4 -10 -10z"/>
<path d="M12610 7160 c0 -5 5 -10 10 -10 6 0 10 5 10 10 0 6 -4 10 -10 10 -5
0 -10 -4 -10 -10z"/>
<path d="M13125 6770 c4 -6 11 -8 16 -5 14 9 11 15 -7 15 -8 0 -12 -5 -9 -10z"/>
<path d="M11055 6220 c-3 -5 1 -10 9 -10 9 0 16 5 16 10 0 6 -4 10 -9 10 -6 0
-13 -4 -16 -10z"/>
<path d="M4264 5974 c3 -9 6 -19 6 -23 0 -11 49 -1 56 10 3 5 -4 9 -15 9 -11
0 -23 5 -26 10 -10 16 -28 11 -21 -6z"/>
<path d="M2570 4590 c0 -5 5 -10 10 -10 6 0 10 5 10 10 0 6 -4 10 -10 10 -5 0
-10 -4 -10 -10z"/>
<path d="M2016 3931 c-4 -7 -5 -15 -2 -18 9 -9 19 4 14 18 -4 11 -6 11 -12 0z"/>
<path d="M8365 2950 c3 -5 8 -10 11 -10 2 0 4 5 4 10 0 6 -5 10 -11 10 -5 0
-7 -4 -4 -10z"/>
<path d="M7605 2850 c3 -5 8 -10 11 -10 2 0 4 5 4 10 0 6 -5 10 -11 10 -5 0
-7 -4 -4 -10z"/>
</g>
</svg>
